<?xml version="1.0" encoding="UTF-8" standalone="no"?>
<!-- Generator: Adobe Illustrator 16.0.0, SVG Export Plug-In . SVG Version: 6.00 Build 0)  -->

<svg
   xmlns:dc="http://purl.org/dc/elements/1.1/"
   xmlns:cc="http://creativecommons.org/ns#"
   xmlns:rdf="http://www.w3.org/1999/02/22-rdf-syntax-ns#"
   xmlns:svg="http://www.w3.org/2000/svg"
   xmlns="http://www.w3.org/2000/svg"
   xmlns:sodipodi="http://sodipodi.sourceforge.net/DTD/sodipodi-0.dtd"
   xmlns:inkscape="http://www.inkscape.org/namespaces/inkscape"
   version="1.1"
   id="Capa_1"
   x="0px"
   y="0px"
   width="466.146px"
   height="466.146px"
   viewBox="0 0 466.146 466.146"
   style="enable-background:new 0 0 466.146 466.146;"
   xml:space="preserve"
   sodipodi:docname="person.svg"
   inkscape:version="0.92.4 (5da689c313, 2019-01-14)"><metadata
   id="metadata3793"><rdf:RDF><cc:Work
       rdf:about=""><dc:format>image/svg+xml</dc:format><dc:type
         rdf:resource="http://purl.org/dc/dcmitype/StillImage" /></cc:Work></rdf:RDF></metadata><defs
   id="defs3791" /><sodipodi:namedview
   pagecolor="#ffffff"
   bordercolor="#666666"
   borderopacity="1"
   objecttolerance="10"
   gridtolerance="10"
   guidetolerance="10"
   inkscape:pageopacity="0"
   inkscape:pageshadow="2"
   inkscape:window-width="3440"
   inkscape:window-height="1377"
   id="namedview3789"
   showgrid="false"
   inkscape:zoom="2.5271053"
   inkscape:cx="168.77018"
   inkscape:cy="233.073"
   inkscape:window-x="1432"
   inkscape:window-y="2152"
   inkscape:window-maximized="1"
   inkscape:current-layer="Capa_1" />
<g
   id="g3756">
	<path
   d="M289.285,191.86c28.844-18.539,47.995-50.83,47.995-87.654C337.28,46.659,290.621,0,233.088,0   c-57.559,0-104.207,46.659-104.207,104.207c0,36.824,19.151,69.121,47.996,87.654c-67.959,6.082-121.422,63.331-121.422,132.854   v108.155l0.274,1.69l7.457,2.328c70.196,21.929,131.195,29.259,181.401,29.259c98.048,0,154.886-27.97,158.408-29.743l6.963-3.534   h0.732V324.714C410.698,255.197,357.253,197.957,289.285,191.86z"
   id="path3754" />
</g>
<g
   id="g3758">
</g>
<g
   id="g3760">
</g>
<g
   id="g3762">
</g>
<g
   id="g3764">
</g>
<g
   id="g3766">
</g>
<g
   id="g3768">
</g>
<g
   id="g3770">
</g>
<g
   id="g3772">
</g>
<g
   id="g3774">
</g>
<g
   id="g3776">
</g>
<g
   id="g3778">
</g>
<g
   id="g3780">
</g>
<g
   id="g3782">
</g>
<g
   id="g3784">
</g>
<g
   id="g3786">
</g>
<path
   style="fill:#00abff;fill-opacity:1;stroke-width:0.39570966"
   d="m 228.91805,465.75163 c -9.07796,-0.3648 -20.73196,-1.0326 -27.50183,-1.57583 -38.27215,-3.07115 -79.81467,-10.69584 -119.504317,-21.93379 -10.757903,-3.04602 -25.260009,-7.54417 -25.835497,-8.0134 -0.413374,-0.33707 -0.483158,-11.8263 -0.368084,-60.60145 0.156176,-66.19666 0.02098,-62.35113 2.65157,-75.42035 3.732299,-18.54269 11.686111,-36.54126 22.954263,-51.94291 16.566505,-22.64358 40.253705,-39.77562 66.842775,-48.34479 8.08666,-2.60618 18.67627,-4.87262 26.14767,-5.59625 l 2.96232,-0.28691 -1.15682,-0.83001 c -14.30539,-10.26407 -23.92635,-20.19706 -31.65794,-32.68464 -2.86597,-4.62895 -7.18362,-13.50676 -9.14138,-18.79621 -1.82509,-4.93101 -4.22776,-14.38157 -5.18107,-20.37905 -1.02328,-6.43762 -1.03724,-23.54857 -0.0245,-30.073938 3.53293,-22.76454 13.56143,-42.657902 29.53249,-58.583068 5.66284,-5.646569 9.30617,-8.612832 16.37481,-13.331775 12.88997,-8.6051811 27.35901,-14.0002201 44.00211,-16.40696847 5.49883,-0.79518278 21.83566,-0.6712382 27.50182,0.20865137 23.45403,3.6421414 43.01504,13.4646941 59.16642,29.7103901 15.45474,15.544995 24.96281,33.935325 28.96754,56.028512 0.95147,5.24903 1.04256,6.664749 1.06932,16.619806 0.0307,11.43051 -0.18731,13.88851 -2.01836,22.75331 -2.99225,14.48664 -11.04326,31.2581 -20.72529,43.17389 -5.87092,7.22541 -13.38483,14.22876 -21.24048,19.79722 l -3.80355,2.69614 5.2223,0.67898 c 39.86421,5.18297 74.58279,27.51288 96.33027,61.95662 3.3926,5.3732 9.16176,17.05015 11.48895,23.25395 3.46322,9.23219 6.05211,19.68651 7.64347,30.86536 0.60865,4.27566 0.68824,10.67881 0.79921,64.30282 l 0.12324,59.5543 -6.82131,3.24945 c -33.40496,15.91303 -79.49037,26.22127 -131.46987,29.40673 -6.77466,0.41518 -37.07817,0.79649 -43.33021,0.54521 z"
   id="path4600"
   inkscape:connector-curvature="0" /></svg>