<?xml version="1.0" encoding="UTF-8" standalone="no"?>
<!-- Generator: Adobe Illustrator 19.0.0, SVG Export Plug-In . SVG Version: 6.00 Build 0)  -->

<svg
   xmlns:dc="http://purl.org/dc/elements/1.1/"
   xmlns:cc="http://creativecommons.org/ns#"
   xmlns:rdf="http://www.w3.org/1999/02/22-rdf-syntax-ns#"
   xmlns:svg="http://www.w3.org/2000/svg"
   xmlns="http://www.w3.org/2000/svg"
   xmlns:sodipodi="http://sodipodi.sourceforge.net/DTD/sodipodi-0.dtd"
   xmlns:inkscape="http://www.inkscape.org/namespaces/inkscape"
   version="1.1"
   id="Capa_1"
   x="0px"
   y="0px"
   viewBox="0 0 427.008 427.008"
   style="enable-background:new 0 0 427.008 427.008;"
   xml:space="preserve"
   sodipodi:docname="radiation.svg"
   inkscape:version="0.92.4 (5da689c313, 2019-01-14)"><metadata
   id="metadata4722"><rdf:RDF><cc:Work
       rdf:about=""><dc:format>image/svg+xml</dc:format><dc:type
         rdf:resource="http://purl.org/dc/dcmitype/StillImage" /></cc:Work></rdf:RDF></metadata><defs
   id="defs4720" /><sodipodi:namedview
   pagecolor="#ffffff"
   bordercolor="#666666"
   borderopacity="1"
   objecttolerance="10"
   gridtolerance="10"
   guidetolerance="10"
   inkscape:pageopacity="0"
   inkscape:pageshadow="2"
   inkscape:window-width="3440"
   inkscape:window-height="1377"
   id="namedview4718"
   showgrid="false"
   inkscape:zoom="0.55268286"
   inkscape:cx="213.504"
   inkscape:cy="213.504"
   inkscape:window-x="1432"
   inkscape:window-y="2152"
   inkscape:window-maximized="1"
   inkscape:current-layer="Capa_1" />
<g
   id="g4667">
	<g
   id="g4665">
		<path
   d="M212.992,179.392c-26.112,0-47.104,20.992-47.104,47.104c0,26.112,20.992,47.104,47.104,47.104    s47.104-20.992,47.104-47.104S239.104,179.392,212.992,179.392z"
   id="path4663" />
	</g>
</g>
<g
   id="g4673">
	<g
   id="g4671">
		<path
   d="M318.976,42.176c-66.048-37.376-146.944-37.376-212.48,0c-3.584,2.048-6.144,6.144-6.144,10.752    c0,2.048,0.512,4.096,1.536,5.632l59.392,102.4c2.048,3.584,6.144,5.632,10.24,5.632c2.048,0,4.096-0.512,5.632-1.536    c22.016-12.288,49.152-12.288,70.656,0c1.536,1.024,3.584,1.536,5.632,1.536c4.096,0,8.192-2.048,10.24-5.632l59.392-102.4    C326.144,52.928,324.608,45.76,318.976,42.176z"
   id="path4669" />
	</g>
</g>
<g
   id="g4679">
	<g
   id="g4677">
		<path
   d="M414.208,214.72H295.936c-6.656,0-11.776,5.12-11.776,11.776c0,25.088-13.824,48.64-35.328,61.44    c-5.632,3.072-7.68,10.752-4.096,16.384l59.392,102.4c3.584,5.632,10.752,7.68,16.384,4.096    c65.536-37.888,106.496-108.544,106.496-184.32C425.984,219.84,420.864,214.72,414.208,214.72z"
   id="path4675" />
	</g>
</g>
<g
   id="g4685">
	<g
   id="g4683">
		<path
   d="M177.664,287.936c-22.016-12.8-35.84-36.352-35.84-61.44c0-6.656-5.12-11.776-11.776-11.776H11.776    C5.12,214.72,0,219.84,0,226.496c0,75.776,40.448,145.92,105.984,184.32c2.048,1.024,4.096,2.048,6.144,2.048    c4.096,0,8.192-2.048,10.24-5.632l59.392-102.4C185.344,298.688,183.296,291.52,177.664,287.936z"
   id="path4681" />
	</g>
</g>
<g
   id="g4687">
</g>
<g
   id="g4689">
</g>
<g
   id="g4691">
</g>
<g
   id="g4693">
</g>
<g
   id="g4695">
</g>
<g
   id="g4697">
</g>
<g
   id="g4699">
</g>
<g
   id="g4701">
</g>
<g
   id="g4703">
</g>
<g
   id="g4705">
</g>
<g
   id="g4707">
</g>
<g
   id="g4709">
</g>
<g
   id="g4711">
</g>
<g
   id="g4713">
</g>
<g
   id="g4715">
</g>
<path
   style="fill:#00abff;fill-opacity:1;stroke-width:1.80935585"
   d="m 164.2029,162.57063 c -5.63063,-6.32514 -62.87897,-106.888789 -62.87897,-110.454539 0,-5.403868 8.38709,-11.543883 26.25206,-19.218593 25.31942,-10.877114 46.89131,-15.702624 75.27765,-16.839192 37.70969,-1.509868 68.691,4.425957 100.20352,19.198369 15.95206,7.477994 20.81755,11.361101 20.81755,16.614347 0,5.746649 -61.50386,110.318358 -66.12106,112.422098 -3.19551,1.45597 -6.68562,0.76633 -16.46268,-3.25302 -10.45439,-4.2978 -14.97075,-5.1007 -28.69165,-5.1007 -13.56552,0 -18.2714,0.81786 -28.18698,4.8988 -13.98159,5.75438 -16.4414,5.96524 -20.20944,1.73243 z"
   id="path4724"
   inkscape:connector-curvature="0" /><path
   style="fill:#00abff;fill-opacity:1;stroke-width:1.80935585"
   d="m 307.93453,408.64303 c -5.5781,-4.8053 -63.67148,-106.39731 -63.67148,-111.34681 0,-3.13294 2.93751,-6.60482 10.6667,-12.60707 17.59422,-13.66315 26.02528,-28.24114 29.17432,-50.44479 1.01735,-7.17325 2.74664,-14.12297 3.84285,-15.44383 1.58834,-1.91383 15.11978,-2.40156 66.62796,-2.40156 76.52445,0 71.28895,-1.5737 70.80106,21.28149 -1.33227,62.40959 -38.97515,128.32359 -94.39631,165.2912 -14.48995,9.66524 -17.53815,10.4154 -23.0451,5.67137 z"
   id="path4726"
   inkscape:connector-curvature="0" /><path
   style="fill:#00abff;fill-opacity:1;stroke-width:1.80935585"
   d="m 197.60892,270.21506 c -8.09469,-2.59378 -21.40273,-14.64967 -26.19435,-23.72974 -5.1863,-9.82796 -5.50963,-29.8335 -0.63247,-39.13313 18.34703,-34.98356 66.15746,-35.79562 83.2902,-1.41469 18.2048,36.53226 -17.21499,76.85392 -56.46338,64.27756 z"
   id="path4728"
   inkscape:connector-curvature="0" /><path
   style="fill:#00abff;fill-opacity:1;stroke-width:1.80935585"
   d="M 94.690429,402.38943 C 86.894678,397.20845 73.133717,385.60595 64.110512,376.60611 32.389181,344.96691 12.435315,307.45112 4.6040936,264.72651 0.94693203,244.77423 0.41374451,222.97475 3.492174,219.26547 c 2.0896492,-2.51787 10.239998,-2.8665 67.013825,-2.8665 73.827951,0 69.421871,-1.00874 71.128011,16.2842 1.72099,17.44341 7.80519,30.23564 20.18108,42.43139 6.10846,6.01954 13.31659,12.71497 16.01807,14.87875 2.70148,2.16378 4.91179,5.63129 4.91179,7.70558 0,3.55519 -57.08949,104.15497 -62.95983,110.94414 -4.43908,5.13391 -10.07242,3.73006 -25.094691,-6.2536 z"
   id="path4730"
   inkscape:connector-curvature="0" /></svg>